<svg xmlns="http://www.w3.org/2000/svg" width="102" height="26" viewBox="0 0 102 26"><g fill="#FFF" fill-rule="evenodd"><path d="M21.8977324,6.60836913 C21.8977324,8.34800284 20.9354127,9.94757027 19.3907056,10.7762524 L14.6493093,13.2938008 L19.3907056,15.8173371 C20.9354127,16.6457589 21.8977324,18.2455866 21.8977324,19.9852203 L21.8977324,22.0971492 L10.2205354,15.8717494 L10.2205354,21.6720038 C10.2205354,21.6720038 5.99868656,21.6553416 5.99868656,18.9282145 L5.99868656,12.5833158 L5.99868656,12.5833158 L5.99868656,10.344338 C5.99868656,7.61747124 10.2205354,7.60080908 10.2205354,7.60080908 L10.2205354,10.7197573 L21.8977324,4.49617992 L21.8977324,6.60836913 Z M6.00131585,6.76952347 C6.00289342,5.85909259 6.55241476,5.02416214 7.40798531,4.69039823 C8.72736237,4.17569367 10.2205354,4.24286301 10.2205354,4.24286301 L10.2205354,5.42639711 C10.2205354,6.16239599 9.67285459,6.78696667 8.93586497,6.88433617 C7.97932974,7.01086445 6.71937459,7.34566974 5.99868656,8.21704867 C5.99868656,8.21704867 5.99973828,7.46230487 6.00131585,6.76952347 L6.00131585,6.76952347 Z M26.1550767,9.43026225 C26.0315001,7.90124866 25.7754074,6.40191455 25.1267618,4.99239989 C24.5541028,3.74768442 23.7087864,2.71983738 22.5871319,1.92343817 C21.3329612,1.03279362 19.9047316,0.574323851 18.3994638,0.328036288 C16.6693918,0.0445192106 14.9219665,0.0135380055 12.7704196,0 C12.2648074,0.0137983518 11.3534959,0.00572761773 10.447706,0.0726366067 C9.45646413,0.146054252 8.46311886,0.246287562 7.48370882,0.410826399 C6.0828238,0.646439765 4.77396389,1.13979593 3.6147105,1.9809747 C1.849669,3.26213864 0.903387994,5.0403036 0.450361551,7.10901499 C0.208992848,8.21184175 0.0843645642,9.33211171 0.0530760287,10.4614938 C-0.00766054029,12.6762594 -0.0612980297,14.8910251 0.16219151,17.1008441 C0.317056614,18.6290767 0.621528245,20.118778 1.35694029,21.4923648 C2.29086364,23.2364244 3.71514933,24.4275086 5.56564271,25.1275797 C7.09799217,25.7073708 8.70475049,25.9268427 10.3288621,25.9656343 C12.1932907,26.0104139 14.0606116,26.0124966 15.9250402,25.9648533 C17.4434544,25.9258013 18.9471446,25.7326244 20.4000896,25.2382268 C22.8279747,24.4118878 24.4949438,22.8154445 25.39232,20.4423884 C25.98391,18.878228 26.175848,17.2359638 26.2247528,15.580422 C26.2854894,13.5304555 26.3204589,11.4786666 26.1550767,9.43026225 L26.1550767,9.43026225 Z"/><g transform="translate(34.323 2)"><path d="M2.44342425 3.4948444 2.92634521 1.85144723 12.1880422 1.85144723 12.6709631 3.4948444 2.44342425 3.4948444ZM12.5676284 10.9398643 13.9462898 8.81088834 11.5688129 8.81088834 10.1737944 10.9398643 8.76241899 10.9398643 8.76241899 8.3420176 14.5652595 8.3420176 14.5652595 6.62813318 8.76241899 6.62813318 8.76241899 5.20872882 13.8058274 5.20872882 13.8058274 4.51586527 15.1141277 4.51586527 13.7894703.154009833 1.32491701.154009833 0 4.51586527 1.32491701 4.51586527 1.32491701 5.20872882 6.36858501 5.20872882 6.36858501 6.62813318.569639019 6.62813318.569639019 8.3420176 6.36858501 8.3420176 6.36858501 10.9398643 4.90735966 10.9398643 3.52895786 8.81088834 1.13512388 8.81088834 2.53014232 10.9398643 0 10.9398643 0 12.6540098 15.1515152 12.6540098 15.1515152 10.9398643 12.5676284 10.9398643ZM32.8282828 6.14303525 32.8282828 4.35244504 17.6767677 4.35244504 17.6767677 6.14303525 21.2258394 6.14303525 18.1624769 12.6540098 32.8282828 12.6540098 30.6655713 8.19643789 28.1375333 8.19643789 29.2789499 10.5294562 21.7282612 10.5294562 23.7912196 6.14303525 32.8282828 6.14303525ZM18.6978015 1.94853829 31.8069879 1.94853829 31.8069879.154009833 18.6978015.154009833 18.6978015 1.94853829ZM41.3323992 4.65996375 42.6239058 4.65996375 42.6239058 2.95079055 40.3585107 2.95079055 40.3585107 2.32986472 42.5195231 2.32986472 42.5195231.62069152 37.951134.62069152 38.1598995.016427849 35.7525227.016427849 34.9332364 2.32986472 37.9343065 2.32986472 37.9343065 2.95079055 34.9332364 2.95079055 34.9332364 4.65996375 37.0272019 4.65996375 34.9708352 6.42302863 37.7754975 6.42302863 39.3094245 5.11114382 40.4252946 6.42302863 42.8494988 6.42302863 41.3323992 4.65996375ZM35.1422648 6.853381 35.1422648 10.2553256 46.2517984 10.2553256 46.2517984 9.08012256 37.6208953 9.08012256 37.6208953 8.38890324 47.5057062 8.38890324 47.5057062 10.3092173C47.5014993 10.4828682 47.4473359 10.6320466 47.3468971 10.7562318 47.2425144 10.8801566 47.1086836 10.9423794 46.9456677 10.9423794L35.1422648 10.9423794 35.1422648 12.4445773 48.1159641 12.4445773C48.3710051 12.4445773 48.6134255 12.3867804 48.8474322 12.2750919 49.077232 12.1592378 49.2820536 12.0017283 49.4576901 11.8072496 49.6333266 11.612771 49.7668944 11.3810628 49.8673333 11.1162907 49.9633023 10.8512582 50.0219354 10.5656583 50.0303492 10.2553256L50.0303492 6.853381 35.1422648 6.853381ZM47.8191174 4.17571971C47.8191174 4.32880331 47.764954 4.45298847 47.6603083 4.55660629 47.5559256 4.65996375 47.4305085 4.71385543 47.2759063 4.71385543L45.7419793 4.71385543 45.7419793 1.72560105 47.8191174 1.72560105 47.8191174 4.17571971ZM43.321982.016427849 43.321982 6.42302863 48.3249925 6.42302863C48.5923912 6.42302863 48.8390185 6.37330249 49.0730251 6.27411057 49.3072948 6.17882384 49.5079095 6.04214205 49.6832831 5.86849109 49.8589195 5.69457979 49.9927503 5.49593559 50.0929262 5.26422742 50.1933651 5.03668479 50.2433215 4.78831446 50.2433215 4.52328197L50.2433215.016427849 43.321982.016427849ZM54.845313 3.26109726 56.2914218 3.26109726 56.2914218 1.55192406 54.845313 1.55192406 54.845313 3.26109726ZM54.845313 6.40243524 56.2914218 6.40243524 56.2914218 4.8174472 54.845313 4.8174472 54.845313 6.40243524ZM56.2914218 9.5104489 54.845313 9.66769804 54.845313 7.95852484 56.2914218 7.95852484 56.2914218 9.5104489ZM58.7824099 1.55192406 58.7824099 0 52.3666825 0 52.3666825 1.55192406 52.8055108 1.55192406 52.8055108 9.90773729 52.3666825 9.96162897 52.3666825 11.513553 56.2914218 11.0459711 56.2914218 12.465379 58.3477884 12.465379 58.3477884 10.8056715 58.7824099 10.7562058 58.7824099 9.21651797 58.3477884 9.27040964 58.3477884 1.55192406 58.7824099 1.55192406ZM67.6767677 3.34805291 67.6767677 1.81253067 66.4020885 1.81253067 67.0665098 0 64.884726 0 64.2245116 1.81253067 62.4981207 1.81253067 61.8336994 0 59.672687 0 60.3163369 1.81253067 59.0458646 1.81253067 59.0458646 3.34805291 61.9549096 3.34805291 61.9549096 6.78306147 59.0458646 6.78306147 59.0458646 8.33915107 61.4700688 8.33915107 59.3592758 12.465379 61.7290537 12.465379 63.8232822 8.33915107 67.6767677 8.33915107 67.6767677 6.78306147 64.2076842 6.78306147 64.2076842 3.34805291 67.6767677 3.34805291ZM66.0008591 8.85645909 63.7854204 8.85645909 65.4615919 12.465379 67.6767677 12.465379 66.0008591 8.85645909Z"/><g transform="translate(.05 17.004)"><path d="M20.4619397,6.21331972 L18.0040807,6.21331972 L16.4178308,4.60516086 C16.1454365,4.33101625 15.9374597,4.11779266 15.7933747,3.96575045 C15.6492897,3.81344789 15.5330751,3.68535753 15.4439423,3.58173971 C15.4492008,3.72206635 15.4544594,3.86655852 15.459718,4.01573693 C15.4649766,4.16491534 15.4676058,4.31279201 15.4676058,4.45910661 L15.4676058,6.21331972 L13.8342917,6.21331972 L13.8342917,0.100389518 L15.4676058,0.100389518 L15.4676058,1.51667318 C15.4676058,1.70568456 15.4649766,1.89131144 15.459718,2.07433487 C15.4544594,2.25683759 15.4465715,2.42736439 15.4360544,2.58591527 C15.540963,2.47604915 15.6679576,2.34066909 15.8170383,2.17925441 C15.966119,2.01783973 16.1612122,1.82153865 16.4020551,1.58983047 L17.9175771,0.100389518 L20.2734197,0.100389518 L18.2630656,1.85486297 C18.0903213,2.00716553 17.9372967,2.14124385 17.8037289,2.25683759 C17.670161,2.37269168 17.5510542,2.47318534 17.4464085,2.55857891 C17.3417628,2.64371214 17.2463197,2.71973325 17.1598161,2.78690258 C17.0735754,2.85407192 16.9883864,2.91785675 16.9045121,2.97851743 C17.056485,3.10061982 17.2394835,3.25292239 17.4542964,3.43542512 C17.6688463,3.61818819 17.9462363,3.87124476 18.2867292,4.19407412 L20.4619397,6.21331972 Z"/><polygon points="21.019 6.213 22.645 6.213 22.645 .1 21.019 .1"/><path d="M28.981992 6.31391751C28.8770834 6.31391751 28.7737523 6.29387085 28.6717359 6.25455856 28.5697195 6.21472559 28.4558713 6.12490613 28.3301913 5.98510018L25.1106273 2.62246788 25.1106273 6.21342385 23.6342817 6.21342385 23.6342817 1.14213904C23.6342817.941151732 23.658997.767500776 23.7086906.621186178 23.7586471.475131925 23.8238534.356414031 23.9050985.265032493 23.9863435.17339061 24.080472.106741967 24.187747.0640451801 24.295022.0213483934 24.4062409 0 24.5216667 0 24.6210538 0 24.7217555.0197863158 24.8240349.0593589474 24.9260513.098931579 25.0425287.188751039 25.1734673.328817327L28.3930313 3.69144963 28.3930313.100493657 29.8772648.100493657 29.8772648 5.162406C29.8772648 5.36365366 29.8522866 5.53730462 29.802593 5.68335887 29.7526365 5.82967347 29.6874302 5.94969309 29.6061851 6.04419878 29.5249401 6.13870448 29.4294969 6.20743589 29.3195927 6.24987233 29.2096884 6.29230877 29.0968919 6.31391751 28.981992 6.31391751M34.0783423 2.39404007 37.439362 2.39404007 37.439362 6.21331972 33.8348702 6.21331972C33.3794773 6.21331972 32.9580024 6.1344348 32.5704452 5.97562358 32.183151 5.81733305 31.8492313 5.59968358 31.5692121 5.32241481 31.2891928 5.04540639 31.0693843 4.71632872 30.9097865 4.33570248 30.7499257 3.95507625 30.6702583 3.54216708 30.6702583 3.09749567 30.6702583 2.65282426 30.7499257 2.2461634 30.9097865 1.87777344 31.0693843 1.50912313 31.2891928 1.19228173 31.5692121.927509588 31.8492313.662477095 32.183151.458365626 32.5704452.315175183 32.9580024.172245086 33.3794773.100389518 33.8348702.100389518L37.5963306.100389518 36.5440892 1.69032413 33.8348702 1.69032413C33.6150616 1.69032413 33.4107659 1.72677261 33.2222459 1.80019025 33.0339888 1.87308721 32.8701841 1.97670502 32.7316206 2.11078334 32.5927942 2.24460132 32.4842045 2.40159011 32.4055888 2.58122903 32.327236 2.7611283 32.2877967 2.96029319 32.2877967 3.17976509 32.2877967 3.39897664 32.3256584 3.59866222 32.4016449 3.77830114 32.4776313 3.95820041 32.5849063 4.1118047 32.7237327 4.23963471 32.8622963 4.36746473 33.0261009 4.46665665 33.2146209 4.5366898 33.402878 4.60672294 33.609803 4.64160934 33.8348702 4.64160934L35.8215607 4.64160934 35.8215607 3.75539067 33.1044538 3.75539067 34.0783423 2.39404007Z"/><polygon points="44.067 4.642 43.015 6.213 38.374 6.213 38.374 .1 39.999 .1 39.999 4.642"/><polygon points="44.632 6.213 46.258 6.213 46.258 .1 44.632 .1"/><path d="M52.5948713,6.31391751 C52.4899627,6.31391751 52.3868946,6.29387085 52.2846152,6.25455856 C52.1825988,6.21472559 52.0687506,6.12490613 51.9430706,5.98510018 L48.7235066,2.62246788 L48.7235066,6.21342385 L47.247424,6.21342385 L47.247424,1.14213904 C47.247424,0.941151732 47.2718763,0.767500776 47.3218328,0.621186178 C47.3715264,0.475131925 47.4367327,0.356414031 47.5182407,0.265032493 C47.5992228,0.17339061 47.6936142,0.106741967 47.8008892,0.0640451801 C47.9081642,0.0213483934 48.0193831,0 48.134546,0 C48.2339331,0 48.3348978,0.0197863158 48.4369142,0.0593589474 C48.5391935,0.098931579 48.6554081,0.188751039 48.7863466,0.328817327 L52.0059106,3.69144963 L52.0059106,0.100493657 L53.4901441,0.100493657 L53.4901441,5.162406 C53.4901441,5.36365366 53.4654288,5.53730462 53.4154723,5.68335887 C53.3655158,5.82967347 53.3003095,5.94969309 53.2190644,6.04419878 C53.1380824,6.13870448 53.0426392,6.20743589 52.9327349,6.24987233 C52.8225677,6.29230877 52.7100342,6.31391751 52.5948713,6.31391751"/><path d="M58.4761169,6.21331972 L56.0182578,6.21331972 L54.4320079,4.60516086 C54.1596136,4.33101625 53.9516369,4.11779266 53.8078148,3.96575045 C53.6637298,3.81344789 53.5472523,3.68535753 53.4583823,3.58173971 C53.463378,3.72206635 53.4686365,3.86655852 53.4738951,4.01573693 C53.4791537,4.16491534 53.481783,4.31279201 53.481783,4.45910661 L52.8320857,4.87357786 L51.8484688,5.64472348 L51.8484688,0.100389518 L53.481783,0.100389518 L53.481783,1.51667318 C53.481783,1.70568456 53.4791537,1.89131144 53.4738951,2.07433487 C53.4686365,2.25683759 53.4607487,2.42736439 53.4504944,2.58591527 C53.5551401,2.47604915 53.6821348,2.34066909 53.8312154,2.17925441 C53.9802961,2.01783973 54.1753893,1.82153865 54.4162322,1.58983047 L55.9317542,0.100389518 L58.2878598,0.100389518 L56.2775056,1.85486297 C56.1044985,2.00716553 55.9514738,2.14124385 55.817906,2.25683759 C55.684601,2.37269168 55.5654943,2.47318534 55.4608486,2.55857891 C55.35594,2.64371214 55.2604968,2.71973325 55.1739932,2.78690258 C55.0874896,2.85407192 55.0025636,2.91785675 54.9189522,2.97851743 C55.0706621,3.10061982 55.2536606,3.25292239 55.4684735,3.43542512 C55.6832864,3.61818819 55.9604134,3.87124476 56.3009063,4.19407412 L58.4761169,6.21331972 Z"/><polygon points="0 3.395 8.734 3.395 8.734 2.919 0 2.919"/><polygon points="58.893 3.395 67.627 3.395 67.627 2.919 58.893 2.919"/><path d="M11.1966945 1.07077813C11.1961686 1.33633132 11.1956427 1.81276498 11.1956427 1.81276498 11.4722439 1.47848038 11.9555072 1.35012967 12.322293 1.30170527 12.6049415 1.26421541 12.8150217 1.02469685 12.8150217.742221154L12.8150217.101509007C12.8150217.101509007 12.2423626.0757347272 11.7362245.273337539 11.4080893.401427899 11.1974832.721393453 11.1966945 1.07077813M11.1957742 2.87000511 11.1957742 6.21337178 12.8212005 6.21337178 12.8212005 1.81273894C12.2856144 1.83773218 11.8275923 1.93536203 11.5197026 2.17409955 11.3069931 2.33915908 11.1957742 2.60236915 11.1957742 2.87000511"/></g></g></g></svg>