<svg xmlns="http://www.w3.org/2000/svg" width="19" height="10" viewBox="0 0 19 10"><path fill="#FFF" d="M7.20556605,0.829165453 C7.45171936,1.16999311 7.58420759,1.57972422 7.58420759,2.00014656 L7.584,4.088 L18.0842076,4.08863508 C18.36035,4.08863508 18.5842076,4.31249271 18.5842076,4.58863508 C18.5842076,4.86477746 18.36035,5.08863508 18.0842076,5.08863508 L7.584,5.088 L7.58420759,7.1771236 C7.58420759,8.2816931 6.68877709,9.1771236 5.58420759,9.1771236 C5.16378525,9.1771236 4.75405414,9.04463537 4.41322648,8.79848206 L0.829165453,6.20999354 C-0.0662860965,5.56327853 -0.267926904,4.31310552 0.378788104,3.41765397 C0.503891646,3.24443368 0.655945164,3.09238017 0.829165453,2.96727663 L4.41322648,0.378788104 C5.30867803,-0.267926904 6.55885104,-0.0662860965 7.20556605,0.829165453 Z M4.99871704,1.18946733 L1.41465601,3.77795585 C1.32804586,3.84050762 1.2520191,3.91653438 1.18946733,4.00314453 C0.866109828,4.4508703 0.966930232,5.07595681 1.41465601,5.39931431 L4.99871704,7.98780283 C5.16913087,8.11087949 5.37399642,8.1771236 5.58420759,8.1771236 C6.13649234,8.1771236 6.58420759,7.72940835 6.58420759,7.1771236 L6.58420759,2.00014656 C6.58420759,1.78993539 6.51796347,1.58506984 6.39488682,1.41465601 C6.07152931,0.966930232 5.44644281,0.866109828 4.99871704,1.18946733 Z"/></svg>